Coordinates
version=1
nRows=9
nColumns=24
inDegrees=yes

Units are S.I. units (second, meters, Newtons, ...)
Angles are in degrees.

endheader
time	pelvis_tilt	pelvis_list	pelvis_rotation	pelvis_tx	pelvis_ty	pelvis_tz	hip_flexion_r	hip_adduction_r	hip_rotation_r	knee_angle_r	ankle_angle_r	subtalar_angle_r	mtp_angle_r	hip_flexion_l	hip_adduction_l	hip_rotation_l	knee_angle_l	ankle_angle_l	subtalar_angle_l	mtp_angle_l	lumbar_extension	lumbar_bending	lumbar_rotation
      1.12500000	     -4.82937426	     -7.36335902	      9.94955366	     -0.51084245	      1.24434576	     -0.90631266	    -16.02054532	     15.25756915	     -9.54200700	      2.08746375	     13.32360980	     16.78022415	      7.71316146	     34.48432106	      6.10175473	     18.86486549	     -7.90613435	    -11.69569588	    -28.58387164	     10.48481199	     -2.52336388	     11.73161634	    -10.16474383
      1.13000000	     -4.85397096	     -7.25800236	     10.25556709	     -0.50439779	      1.24357009	     -0.90687449	    -16.25116227	     15.24719094	    -10.14501208	      1.73708749	     13.36982502	     17.11500680	      8.07139160	     34.53402971	      6.56784688	     19.62394197	     -8.44443525	    -12.43009278	    -29.03765949	     10.36159116	     -2.40485091	     11.51214367	    -10.48660534
      1.13500000	     -4.87286694	     -7.13546760	     10.51924753	     -0.49792195	      1.24292741	     -0.90739699	    -16.47971491	     15.20339418	    -10.63837333	      1.36632382	     13.32902846	     17.33175473	      8.50451191	     34.54652647	      7.02355216	     20.36473368	     -9.00795803	    -13.18886741	    -29.50579380	     10.20230727	     -2.30441613	     11.27126180	    -10.72914969
      1.14000000	     -4.88943195	     -6.99678767	     10.72381826	     -0.49143330	      1.24243170	     -0.90785598	    -16.68581353	     15.11985529	    -11.02021038	      0.94385139	     13.24785193	     17.45083924	      9.01808566	     34.53221526	      7.45688342	     21.05347920	     -9.59762685	    -14.00862513	    -29.97111841	      9.99739072	     -2.23054523	     11.01788268	    -10.92713020
      1.14500000	     -4.90196746	     -6.84157956	     10.88639816	     -0.48491805	      1.24208022	     -0.90825724	    -16.87822393	     15.00331702	    -11.30223682	      0.48407538	     13.10231600	     17.47182875	      9.58184800	     34.48626258	      7.87416106	     21.69062686	    -10.19963569	    -14.83460411	    -30.38727163	      9.75133795	     -2.17812311	     10.74724979	    -11.07050941
      1.15000000	     -4.92165369	     -6.68536897	     11.00468458	     -0.47838552	      1.24186681	     -0.90860104	    -17.03405884	     14.86461827	    -11.47577977	     -0.02566863	     12.88786150	     17.40022705	     10.19786056	     34.43071133	      8.26327161	     22.27770362	    -10.81931992	    -15.65177814	    -30.76042414	      9.45987839	     -2.12703669	     10.47010360	    -11.15262532
      1.15500000	     -4.93879657	     -6.51867451	     11.07209482	     -0.47184934	      1.24181558	     -0.90887995	    -17.16224751	     14.69357006	    -11.54294519	     -0.58609984	     12.60755059	     17.22968633	     10.89387463	     34.34784160	      8.62195419	     22.80065320	    -11.43631525	    -16.46423023	    -31.06971822	      9.11202262	     -2.10033880	     10.18496018	    -11.17943103
      1.16000000	     -4.95716747	     -6.35174342	     11.10677102	     -0.46529215	      1.24190081	     -0.90910839	    -17.26113681	     14.50660341	    -11.52938492	     -1.18804780	     12.24890100	     16.97871848	     11.63055060	     34.25179336	      8.95392049	     23.27715287	    -12.06404496	    -17.22133494	    -31.30189843	      8.71695956	     -2.07722503	      9.90054773	    -11.16360770
      1.16500000	     -4.97100859	     -6.18469502	     11.09767040	     -0.45874162	      1.24211862	     -0.90923638	    -17.30629481	     14.29750086	    -11.49083085	     -1.89580569	     11.84850215	     16.88238139	     11.73739339	     34.16660604	      9.24375630	     23.59710926	    -12.73958448	    -17.65764655	    -31.11210409	      8.71358213	     -2.07714126	      9.60551530	    -11.06506127
